<?xml version="1.0"?>
<!-- Generated by SVGo -->
<svg width="338.614mm" height="152.877mm"
     viewBox="0.000 0.000 338.614 152.877"
     xmlns="http://www.w3.org/2000/svg" 
     xmlns:xlink="http://www.w3.org/1999/xlink">
<polygon points="333.614,147.877 5.001,147.877 5.001,5.001 333.614,5.001" style="fill:none;stroke-width:0.050000mm;stroke:black"/>
<polygon points="152.782,131.351 152.782,136.051 113.157,136.051 113.157,132.821 111.432,132.821 111.432,131.901 108.132,131.901 108.132,132.821 106.407,132.821 106.407,136.051 105.582,136.051 105.582,138.851 106.407,138.851 106.407,145.121 108.132,145.121 108.132,146.101 111.432,146.101 111.432,145.121 113.157,145.121 113.157,140.651 152.782,140.651 152.782,145.351 166.782,145.351 166.782,140.651 206.407,140.651 206.407,145.121 208.132,145.121 208.132,146.101 211.432,146.101 211.432,145.121 213.157,145.121 213.157,138.851 213.982,138.851 213.982,136.051 213.157,136.051 213.157,132.821 211.432,132.821 211.432,131.901 208.132,131.901 208.132,132.821 206.407,132.821 206.407,136.051 166.782,136.051 166.782,131.351" style="fill:none;stroke-width:0.050000mm;stroke:black"/>
<polygon points="245.651,131.351 245.651,145.351 259.650,145.351 259.650,131.351" style="fill:none;stroke-width:0.050000mm;stroke:black"/>
<polygon points="264.701,131.351 264.701,145.351 278.701,145.351 278.701,131.351" style="fill:none;stroke-width:0.050000mm;stroke:black"/>
<polygon points="283.751,131.351 283.751,145.351 297.751,145.351 297.751,131.351" style="fill:none;stroke-width:0.050000mm;stroke:black"/>
<polygon points="43.149,117.063 43.149,131.063 57.149,131.063 57.149,117.063" style="fill:none;stroke-width:0.050000mm;stroke:black"/>
<polygon points="73.021,127.036 86.715,129.947 89.626,116.253 75.932,113.342" style="fill:none;stroke-width:0.050000mm;stroke:black"/>
<polygon points="12.288,112.301 12.288,126.301 26.288,126.301 26.288,112.301" style="fill:none;stroke-width:0.050000mm;stroke:black"/>
<polygon points="264.701,112.301 264.701,126.301 278.701,126.301 278.701,112.301" style="fill:none;stroke-width:0.050000mm;stroke:black"/>
<polygon points="172.589,109.083 175.500,122.777 189.194,119.866 186.283,106.172" style="fill:none;stroke-width:0.050000mm;stroke:black"/>
<polygon points="128.224,119.295 141.918,122.205 144.829,108.511 131.135,105.601" style="fill:none;stroke-width:0.050000mm;stroke:black"/>
<polygon points="191.223,105.122 194.134,118.816 207.828,115.905 204.917,102.211" style="fill:none;stroke-width:0.050000mm;stroke:black"/>
<polygon points="109.590,115.334 123.285,118.245 126.195,104.551 112.501,101.640" style="fill:none;stroke-width:0.050000mm;stroke:black"/>
<polygon points="209.857,101.161 212.767,114.856 226.461,111.945 223.551,98.251" style="fill:none;stroke-width:0.050000mm;stroke:black"/>
<polygon points="90.957,111.373 104.651,114.284 107.562,100.590 93.868,97.679" style="fill:none;stroke-width:0.050000mm;stroke:black"/>
<polygon points="228.490,97.201 231.401,110.895 245.095,107.984 242.184,94.290" style="fill:none;stroke-width:0.050000mm;stroke:black"/>
<polygon points="72.323,107.412 86.017,110.323 88.928,96.629 75.234,93.718" style="fill:none;stroke-width:0.050000mm;stroke:black"/>
<polygon points="19.432,93.251 19.432,97.951 17.907,97.951 17.907,94.721 16.182,94.721 16.182,93.801 12.882,93.801 12.882,94.721 11.157,94.721 11.157,97.951 10.332,97.951 10.332,100.751 11.157,100.751 11.157,107.021 12.882,107.021 12.882,108.001 16.182,108.001 16.182,107.021 17.907,107.021 17.907,102.551 19.432,102.551 19.432,107.251 33.432,107.251 33.432,102.551 34.957,102.551 34.957,107.021 36.682,107.021 36.682,108.001 39.982,108.001 39.982,107.021 41.707,107.021 41.707,100.751 42.532,100.751 42.532,97.951 41.707,97.951 41.707,94.721 39.982,94.721 39.982,93.801 36.682,93.801 36.682,94.721 34.957,94.721 34.957,97.951 33.432,97.951 33.432,93.251" style="fill:none;stroke-width:0.050000mm;stroke:black"/>
<polygon points="248.987,92.844 251.898,106.538 265.592,103.627 262.681,89.933" style="fill:none;stroke-width:0.050000mm;stroke:black"/>
<polygon points="53.689,103.452 67.383,106.363 70.294,92.668 56.600,89.758" style="fill:none;stroke-width:0.050000mm;stroke:black"/>
<polygon points="286.132,88.488 286.132,93.188 284.607,93.188 284.607,89.958 282.882,89.958 282.882,89.038 279.582,89.038 279.582,89.958 277.857,89.958 277.857,93.188 277.032,93.188 277.032,95.988 277.857,95.988 277.857,102.258 279.582,102.258 279.582,103.238 282.882,103.238 282.882,102.258 284.607,102.258 284.607,97.788 286.132,97.788 286.132,102.488 300.132,102.488 300.132,97.788 301.657,97.788 301.657,102.258 303.382,102.258 303.382,103.238 306.682,103.238 306.682,102.258 308.407,102.258 308.407,95.988 309.232,95.988 309.232,93.188 308.407,93.188 308.407,89.958 306.682,89.958 306.682,89.038 303.382,89.038 303.382,89.958 301.657,89.958 301.657,93.188 300.132,93.188 300.132,88.488" style="fill:none;stroke-width:0.050000mm;stroke:black"/>
<polygon points="174.219,89.261 177.129,102.955 190.823,100.044 187.913,86.350" style="fill:none;stroke-width:0.050000mm;stroke:black"/>
<polygon points="122.868,98.681 136.562,101.591 139.473,87.897 125.779,84.987" style="fill:none;stroke-width:0.050000mm;stroke:black"/>
<polygon points="192.852,85.300 195.763,98.994 209.457,96.084 206.546,82.389" style="fill:none;stroke-width:0.050000mm;stroke:black"/>
<polygon points="104.234,94.720 117.928,97.631 120.839,83.937 107.145,81.026" style="fill:none;stroke-width:0.050000mm;stroke:black"/>
<polygon points="211.486,81.340 214.397,95.034 228.091,92.123 225.180,78.429" style="fill:none;stroke-width:0.050000mm;stroke:black"/>
<polygon points="85.601,90.759 99.295,93.670 102.205,79.976 88.511,77.065" style="fill:none;stroke-width:0.050000mm;stroke:black"/>
<polygon points="230.120,77.379 233.030,91.073 246.725,88.162 243.814,74.468" style="fill:none;stroke-width:0.050000mm;stroke:black"/>
<polygon points="66.967,86.798 80.661,89.709 83.572,76.015 69.878,73.104" style="fill:none;stroke-width:0.050000mm;stroke:black"/>
<polygon points="14.669,74.201 14.669,88.201 28.669,88.201 28.669,74.201" style="fill:none;stroke-width:0.050000mm;stroke:black"/>
<polygon points="248.753,73.418 251.664,87.112 265.358,84.201 262.448,70.507" style="fill:none;stroke-width:0.050000mm;stroke:black"/>
<polygon points="48.333,82.838 62.027,85.748 64.938,72.054 51.244,69.144" style="fill:none;stroke-width:0.050000mm;stroke:black"/>
<polygon points="165.599,71.617 168.510,85.311 182.204,82.401 179.294,68.707" style="fill:none;stroke-width:0.050000mm;stroke:black"/>
<polygon points="305.182,69.438 305.182,74.138 303.657,74.138 303.657,70.908 301.932,70.908 301.932,69.988 298.632,69.988 298.632,70.908 296.907,70.908 296.907,74.138 296.082,74.138 296.082,76.938 296.907,76.938 296.907,83.208 298.632,83.208 298.632,84.188 301.932,84.188 301.932,83.208 303.657,83.208 303.657,78.738 305.182,78.738 305.182,83.438 319.182,83.438 319.182,78.738 320.707,78.738 320.707,83.208 322.432,83.208 322.432,84.188 325.732,84.188 325.732,83.208 327.457,83.208 327.457,76.938 328.282,76.938 328.282,74.138 327.457,74.138 327.457,70.908 325.732,70.908 325.732,69.988 322.432,69.988 322.432,70.908 320.707,70.908 320.707,74.138 319.182,74.138 319.182,69.438" style="fill:none;stroke-width:0.050000mm;stroke:black"/>
<polygon points="267.387,69.457 270.298,83.151 283.992,80.241 281.081,66.547" style="fill:none;stroke-width:0.050000mm;stroke:black"/>
<polygon points="122.170,79.057 135.864,81.967 138.775,68.273 125.081,65.362" style="fill:none;stroke-width:0.050000mm;stroke:black"/>
<polygon points="184.233,67.657 187.144,81.351 200.838,78.440 197.927,64.746" style="fill:none;stroke-width:0.050000mm;stroke:black"/>
<polygon points="103.537,75.096 117.231,78.007 120.141,64.313 106.447,61.402" style="fill:none;stroke-width:0.050000mm;stroke:black"/>
<polygon points="202.867,63.696 205.778,77.390 219.472,74.479 216.561,60.785" style="fill:none;stroke-width:0.050000mm;stroke:black"/>
<polygon points="84.903,71.135 98.597,74.046 101.508,60.352 87.814,57.441" style="fill:none;stroke-width:0.050000mm;stroke:black"/>
<polygon points="221.501,59.735 224.411,73.429 238.105,70.519 235.195,56.825" style="fill:none;stroke-width:0.050000mm;stroke:black"/>
<polygon points="66.269,67.175 79.963,70.085 82.874,56.391 69.180,53.480" style="fill:none;stroke-width:0.050000mm;stroke:black"/>
<polygon points="240.134,55.775 243.045,69.469 256.739,66.558 253.828,52.864" style="fill:none;stroke-width:0.050000mm;stroke:black"/>
<polygon points="21.813,55.151 21.813,69.151 35.813,69.151 35.813,55.151" style="fill:none;stroke-width:0.050000mm;stroke:black"/>
<polygon points="47.636,63.214 61.330,66.125 64.240,52.431 50.546,49.520" style="fill:none;stroke-width:0.050000mm;stroke:black"/>
<polygon points="165.365,52.192 168.276,65.886 181.970,62.975 179.060,49.281" style="fill:none;stroke-width:0.050000mm;stroke:black"/>
<polygon points="258.768,51.814 261.679,65.508 275.373,62.597 272.462,48.903" style="fill:none;stroke-width:0.050000mm;stroke:black"/>
<polygon points="132.653,61.809 146.347,64.719 149.258,51.026 135.564,48.115" style="fill:none;stroke-width:0.050000mm;stroke:black"/>
<polygon points="183.999,48.231 186.910,61.925 200.604,59.014 197.693,45.320" style="fill:none;stroke-width:0.050000mm;stroke:black"/>
<polygon points="277.402,47.853 280.312,61.547 294.007,58.636 291.096,44.942" style="fill:none;stroke-width:0.050000mm;stroke:black"/>
<polygon points="114.019,57.849 127.713,60.759 130.623,47.065 116.930,44.154" style="fill:none;stroke-width:0.050000mm;stroke:black"/>
<polygon points="202.633,44.270 205.544,57.964 219.238,55.053 216.327,41.359" style="fill:none;stroke-width:0.050000mm;stroke:black"/>
<polygon points="296.035,43.892 298.946,57.586 312.640,54.676 309.729,40.982" style="fill:none;stroke-width:0.050000mm;stroke:black"/>
<polygon points="95.385,53.888 109.080,56.799 111.990,43.104 98.296,40.194" style="fill:none;stroke-width:0.050000mm;stroke:black"/>
<polygon points="221.267,40.309 224.177,54.003 237.871,51.093 234.961,37.399" style="fill:none;stroke-width:0.050000mm;stroke:black"/>
<polygon points="76.752,49.927 90.446,52.838 93.357,39.144 79.663,36.233" style="fill:none;stroke-width:0.050000mm;stroke:black"/>
<polygon points="17.051,36.101 17.051,50.101 31.051,50.101 31.051,36.101" style="fill:none;stroke-width:0.050000mm;stroke:black"/>
<polygon points="239.900,36.349 242.811,50.043 256.505,47.132 253.594,33.438" style="fill:none;stroke-width:0.050000mm;stroke:black"/>
<polygon points="58.118,45.966 71.812,48.877 74.723,35.183 61.029,32.272" style="fill:none;stroke-width:0.050000mm;stroke:black"/>
<polygon points="258.534,32.388 261.445,46.082 275.139,43.171 272.228,29.477" style="fill:none;stroke-width:0.050000mm;stroke:black"/>
<polygon points="39.484,42.006 53.178,44.916 56.089,31.222 42.395,28.312" style="fill:none;stroke-width:0.050000mm;stroke:black"/>
<polygon points="169.627,25.929 172.538,39.623 186.232,36.712 183.321,23.018" style="fill:none;stroke-width:0.050000mm;stroke:black"/>
<polygon points="130.744,34.138 144.438,37.048 147.349,23.354 133.655,20.444" style="fill:none;stroke-width:0.050000mm;stroke:black"/>
<polygon points="188.261,21.968 191.172,35.662 204.866,32.751 201.955,19.057" style="fill:none;stroke-width:0.050000mm;stroke:black"/>
<polygon points="112.111,30.177 125.805,33.088 128.716,19.394 115.021,16.483" style="fill:none;stroke-width:0.050000mm;stroke:black"/>
<polygon points="206.895,18.007 209.806,31.702 223.500,28.791 220.589,15.097" style="fill:none;stroke-width:0.050000mm;stroke:black"/>
<polygon points="93.477,26.216 107.171,29.127 110.082,15.433 96.388,12.522" style="fill:none;stroke-width:0.050000mm;stroke:black"/>
<polygon points="225.528,14.047 228.439,27.741 242.133,24.830 239.223,11.136" style="fill:none;stroke-width:0.050000mm;stroke:black"/>
<polygon points="11.336,12.288 11.336,26.288 25.336,26.288 25.336,12.288" style="fill:none;stroke-width:0.050000mm;stroke:black"/>
<polygon points="298.038,11.336 298.038,16.036 296.513,16.036 296.513,12.806 294.788,12.806 294.788,11.886 291.488,11.886 291.488,12.806 289.763,12.806 289.763,16.036 288.938,16.036 288.938,18.836 289.763,18.836 289.763,25.106 291.488,25.106 291.488,26.086 294.788,26.086 294.788,25.106 296.513,25.106 296.513,20.636 298.038,20.636 298.038,25.336 312.038,25.336 312.038,20.636 313.563,20.636 313.563,25.106 315.288,25.106 315.288,26.086 318.588,26.086 318.588,25.106 320.313,25.106 320.313,18.836 321.138,18.836 321.138,16.036 320.313,16.036 320.313,12.806 318.588,12.806 318.588,11.886 315.288,11.886 315.288,12.806 313.563,12.806 313.563,16.036 312.038,16.036 312.038,11.336" style="fill:none;stroke-width:0.050000mm;stroke:black"/>
<polygon points="74.843,22.256 88.537,25.166 91.448,11.472 77.754,8.562" style="fill:none;stroke-width:0.050000mm;stroke:black"/>
<polygon points="36.101,7.526 36.101,21.526 50.101,21.526 50.101,7.526" style="fill:none;stroke-width:0.050000mm;stroke:black"/>
<polygon points="55.151,7.526 55.151,21.526 69.151,21.526 69.151,7.526" style="fill:none;stroke-width:0.050000mm;stroke:black"/>
<polygon points="247.556,7.526 247.556,21.526 261.556,21.526 261.556,7.526" style="fill:none;stroke-width:0.050000mm;stroke:black"/>
<polygon points="266.606,7.526 266.606,21.526 280.606,21.526 280.606,7.526" style="fill:none;stroke-width:0.050000mm;stroke:black"/>
</svg>
